<svg xmlns="http://www.w3.org/2000/svg" width="1200" height="900" viewBox="0 0 1200 900" role="img" aria-label="California Birding Life List Checklist Printable, Birdwatch Log preview">
  <defs>
    <linearGradient id="bg" x1="0" y1="0" x2="1" y2="1">
      <stop offset="0%" stop-color="#f5f0e8"/>
      <stop offset="100%" stop-color="#e8dcc8"/>
    </linearGradient>
    <linearGradient id="panel" x1="0" y1="0" x2="0" y2="1">
      <stop offset="0%" stop-color="#fffdf8"/>
      <stop offset="100%" stop-color="#f7efe2"/>
    </linearGradient>
  </defs>
  <rect width="1200" height="900" fill="url(#bg)"/>
  <rect x="90" y="70" width="1020" height="760" rx="28" fill="url(#panel)" stroke="#d2c2a8" stroke-width="3"/>
  <rect x="90" y="70" width="16" height="760" fill="#c4714a" rx="8"/>
  <g transform="translate(770,170)">
    <ellipse cx="150" cy="260" rx="170" ry="130" fill="#7ec8c8" opacity="0.30"/>
    <path d="M40 300c45-82 102-130 173-144 67-14 130 6 192 66" fill="none" stroke="#2d4a2d" stroke-width="15" stroke-linecap="round"/>
    <path d="M116 201c46-33 96-31 150 6-39 12-72 38-99 74-9-29-26-55-51-80z" fill="#7ec8c8" stroke="#2d4a2d" stroke-width="5"/>
    <circle cx="252" cy="199" r="7" fill="#1a2332"/>
    <path d="M278 212l28 10-30 8z" fill="#c4714a"/>
  </g>
  <text x="140" y="176" font-family="'Playfair Display', Georgia, serif" font-size="58" fill="#2d4a2d">Field &amp; Feather Co.</text>
  <text x="140" y="250" font-family="'DM Sans', Arial, sans-serif" font-size="34" fill="#1a2332" font-weight="700">Digital Download · PDF</text>
  <text x="140" y="300" font-family="'DM Sans', Arial, sans-serif" font-size="32" fill="#c4714a" font-weight="700">State Checklist</text>
  <text x="140" y="390" font-family="'Playfair Display', Georgia, serif" font-size="42" fill="#2d4a2d">California Birding Life List Checklist Printable, Bi</text>
  <text x="140" y="444" font-family="'Playfair Display', Georgia, serif" font-size="42" fill="#2d4a2d">rdwatch Log</text>
  <text x="140" y="760" font-family="'DM Sans', Arial, sans-serif" font-size="38" fill="#1a2332" font-weight="700">$5.99</text>
  <text x="245" y="760" font-family="'DM Sans', Arial, sans-serif" font-size="28" fill="#5e635c">Instant digital delivery</text>
</svg>