<svg xmlns="http://www.w3.org/2000/svg" width="2550" height="3300" viewBox="0 0 2550 3300">
  <rect width="2550" height="3300" fill="#f4efe6"/>
  <rect x="120" y="120" width="2310" height="3060" rx="24" fill="#fffdf8" stroke="#d8ccb6" stroke-width="6"/>
  <text x="220" y="280" font-family="Georgia, serif" font-size="82" fill="#2d4a2d">GoodNotes Daily Birding Planner</text>
  <text x="220" y="350" font-family="Arial" font-size="36" fill="#5e635c">Hyperlinked daily log template</text>
  <line x1="220" y1="420" x2="2330" y2="420" stroke="#7ec8c8" stroke-width="8"/>
  <rect x="220" y="470" width="980" height="240" rx="12" fill="#f8f4ec" stroke="#d7d0c3"/>
  <text x="250" y="550" font-family="Arial" font-size="34" fill="#1f2a1d">Date:</text><text x="250" y="620" font-family="Arial" font-size="34" fill="#1f2a1d">Location:</text>
  <rect x="1250" y="470" width="1080" height="240" rx="12" fill="#f8f4ec" stroke="#d7d0c3"/>
  <text x="1280" y="550" font-family="Arial" font-size="34" fill="#1f2a1d">Weather:</text><text x="1280" y="620" font-family="Arial" font-size="34" fill="#1f2a1d">Time Window:</text>
  <text x="220" y="790" font-family="Arial" font-size="36" fill="#2d4a2d">Species Observed</text>
  <line x1="220" y1="840" x2="2330" y2="840" stroke="#d7d0c3" stroke-width="2"/><line x1="220" y1="925" x2="2330" y2="925" stroke="#d7d0c3" stroke-width="2"/><line x1="220" y1="1010" x2="2330" y2="1010" stroke="#d7d0c3" stroke-width="2"/><line x1="220" y1="1095" x2="2330" y2="1095" stroke="#d7d0c3" stroke-width="2"/><line x1="220" y1="1180" x2="2330" y2="1180" stroke="#d7d0c3" stroke-width="2"/><line x1="220" y1="1265" x2="2330" y2="1265" stroke="#d7d0c3" stroke-width="2"/><line x1="220" y1="1350" x2="2330" y2="1350" stroke="#d7d0c3" stroke-width="2"/><line x1="220" y1="1435" x2="2330" y2="1435" stroke="#d7d0c3" stroke-width="2"/><line x1="220" y1="1520" x2="2330" y2="1520" stroke="#d7d0c3" stroke-width="2"/><line x1="220" y1="1605" x2="2330" y2="1605" stroke="#d7d0c3" stroke-width="2"/><line x1="220" y1="1690" x2="2330" y2="1690" stroke="#d7d0c3" stroke-width="2"/><line x1="220" y1="1775" x2="2330" y2="1775" stroke="#d7d0c3" stroke-width="2"/><line x1="220" y1="1860" x2="2330" y2="1860" stroke="#d7d0c3" stroke-width="2"/><line x1="220" y1="1945" x2="2330" y2="1945" stroke="#d7d0c3" stroke-width="2"/><line x1="220" y1="2030" x2="2330" y2="2030" stroke="#d7d0c3" stroke-width="2"/><line x1="220" y1="2115" x2="2330" y2="2115" stroke="#d7d0c3" stroke-width="2"/><line x1="220" y1="2200" x2="2330" y2="2200" stroke="#d7d0c3" stroke-width="2"/><line x1="220" y1="2285" x2="2330" y2="2285" stroke="#d7d0c3" stroke-width="2"/>
  <text x="220" y="2460" font-family="Arial" font-size="36" fill="#2d4a2d">Highlights / Photos / Checklist</text>
  <rect x="220" y="2500" width="2110" height="560" rx="14" fill="#faf7f1" stroke="#d7d0c3"/>
</svg>