<svg xmlns="http://www.w3.org/2000/svg" width="2550" height="3300" viewBox="0 0 2550 3300">
  <rect width="2550" height="3300" fill="#f4efe6"/>
  <rect x="120" y="120" width="2310" height="3060" rx="24" fill="#fffdf8" stroke="#d8ccb6" stroke-width="6"/>
  <text x="220" y="280" font-family="Georgia, serif" font-size="82" fill="#2d4a2d">GoodNotes Seasonal Migration Planner</text>
  <text x="220" y="350" font-family="Arial" font-size="36" fill="#5e635c">Spring/Fall goals, routes, and notable sightings</text>
  <line x1="220" y1="420" x2="2330" y2="420" stroke="#7ec8c8" stroke-width="8"/>
  <g font-family="Arial" font-size="34" fill="#1f2a1d">
    <text x="220" y="520">Season:</text><text x="900" y="520">Region:</text><text x="1560" y="520">Year:</text>
  </g>
  <rect x="220" y="560" width="1020" height="640" rx="14" fill="#faf7f1" stroke="#d7d0c3"/>
  <text x="250" y="620" font-family="Arial" font-size="32" fill="#2d4a2d">Target Species</text>
  <rect x="1310" y="560" width="1020" height="640" rx="14" fill="#faf7f1" stroke="#d7d0c3"/>
  <text x="1340" y="620" font-family="Arial" font-size="32" fill="#2d4a2d">Target Locations</text>
  <rect x="220" y="1260" width="2110" height="760" rx="14" fill="#faf7f1" stroke="#d7d0c3"/>
  <text x="250" y="1320" font-family="Arial" font-size="32" fill="#2d4a2d">Migration Log (Date, Species, Location, Count, Notes)</text>
  <line x1="250" y1="1380" x2="2300" y2="1380" stroke="#d7d0c3" stroke-width="2"/><line x1="250" y1="1475" x2="2300" y2="1475" stroke="#d7d0c3" stroke-width="2"/><line x1="250" y1="1570" x2="2300" y2="1570" stroke="#d7d0c3" stroke-width="2"/><line x1="250" y1="1665" x2="2300" y2="1665" stroke="#d7d0c3" stroke-width="2"/><line x1="250" y1="1760" x2="2300" y2="1760" stroke="#d7d0c3" stroke-width="2"/><line x1="250" y1="1855" x2="2300" y2="1855" stroke="#d7d0c3" stroke-width="2"/><line x1="250" y1="1950" x2="2300" y2="1950" stroke="#d7d0c3" stroke-width="2"/><line x1="250" y1="2045" x2="2300" y2="2045" stroke="#d7d0c3" stroke-width="2"/><line x1="250" y1="2140" x2="2300" y2="2140" stroke="#d7d0c3" stroke-width="2"/><line x1="250" y1="2235" x2="2300" y2="2235" stroke="#d7d0c3" stroke-width="2"/><line x1="250" y1="2330" x2="2300" y2="2330" stroke="#d7d0c3" stroke-width="2"/><line x1="250" y1="2425" x2="2300" y2="2425" stroke="#d7d0c3" stroke-width="2"/><line x1="250" y1="2520" x2="2300" y2="2520" stroke="#d7d0c3" stroke-width="2"/><line x1="250" y1="2615" x2="2300" y2="2615" stroke="#d7d0c3" stroke-width="2"/>
  <rect x="220" y="2080" width="2110" height="980" rx="14" fill="#faf7f1" stroke="#d7d0c3"/>
  <text x="250" y="2140" font-family="Arial" font-size="32" fill="#2d4a2d">Season Wrap-Up + Lessons</text>
</svg>