<svg xmlns="http://www.w3.org/2000/svg" width="2550" height="3300" viewBox="0 0 2550 3300">
  <rect width="2550" height="3300" fill="#f4efe6"/>
  <rect x="120" y="120" width="2310" height="3060" rx="24" fill="#fffdf8" stroke="#d8ccb6" stroke-width="6"/>
  <text x="220" y="280" font-family="Georgia, serif" font-size="82" fill="#2d4a2d">GoodNotes Weekly Birding Planner</text>
  <text x="220" y="350" font-family="Arial" font-size="36" fill="#5e635c">Weekly priorities, targets, and review</text>
  <line x1="220" y1="420" x2="2330" y2="420" stroke="#7ec8c8" stroke-width="8"/>
  <rect x="220" y="470" width="2110" height="230" rx="12" fill="#f8f4ec" stroke="#d7d0c3"/>
  <text x="250" y="560" font-family="Arial" font-size="34" fill="#1f2a1d">Week of:</text>
  <text x="250" y="625" font-family="Arial" font-size="34" fill="#1f2a1d">Top 3 Birding Priorities:</text>
  <g font-family="Arial" font-size="30" fill="#1f2a1d">
    <text x="250" y="790">Mon</text><text x="250" y="1130">Tue</text><text x="250" y="1470">Wed</text><text x="250" y="1810">Thu</text><text x="250" y="2150">Fri</text><text x="250" y="2490">Sat</text><text x="250" y="2830">Sun</text>
  </g>
  <rect x="360" y="730" width="1970" height="270" rx="10" fill="#faf7f1" stroke="#d7d0c3" transform="translate(0,0)"/><rect x="360" y="730" width="1970" height="270" rx="10" fill="#faf7f1" stroke="#d7d0c3" transform="translate(0,340)"/><rect x="360" y="730" width="1970" height="270" rx="10" fill="#faf7f1" stroke="#d7d0c3" transform="translate(0,680)"/><rect x="360" y="730" width="1970" height="270" rx="10" fill="#faf7f1" stroke="#d7d0c3" transform="translate(0,1020)"/><rect x="360" y="730" width="1970" height="270" rx="10" fill="#faf7f1" stroke="#d7d0c3" transform="translate(0,1360)"/><rect x="360" y="730" width="1970" height="270" rx="10" fill="#faf7f1" stroke="#d7d0c3" transform="translate(0,1700)"/><rect x="360" y="730" width="1970" height="270" rx="10" fill="#faf7f1" stroke="#d7d0c3" transform="translate(0,2040)"/>
</svg>