<svg xmlns="http://www.w3.org/2000/svg" width="2550" height="3300" viewBox="0 0 2550 3300">
  <rect width="2550" height="3300" fill="#f9f5ee"/>
  <rect x="120" y="120" width="2310" height="3060" rx="24" fill="#fffdf8" stroke="#d8ccb6" stroke-width="6"/>
  <text x="220" y="280" font-family="Georgia, serif" font-size="86" fill="#2d4a2d">First Seen Migration Log</text>
  <text x="220" y="350" font-family="Arial" font-size="40" fill="#5e635c">Track first arrivals by species, location, and date</text>
  <line x1="220" y1="420" x2="2330" y2="420" stroke="#c4714a" stroke-width="8"/>
  <g font-family="Arial" font-size="34" fill="#1f2a1d">
    <text x="230" y="510">Species</text><text x="780" y="510">First Date</text><text x="1120" y="510">Location</text><text x="1700" y="510">Weather</text><text x="2050" y="510">Notes</text>
  </g>
  <line x1="220" y1="560" x2="2330" y2="560" stroke="#d7d0c3" stroke-width="2"/><line x1="220" y1="655" x2="2330" y2="655" stroke="#d7d0c3" stroke-width="2"/><line x1="220" y1="750" x2="2330" y2="750" stroke="#d7d0c3" stroke-width="2"/><line x1="220" y1="845" x2="2330" y2="845" stroke="#d7d0c3" stroke-width="2"/><line x1="220" y1="940" x2="2330" y2="940" stroke="#d7d0c3" stroke-width="2"/><line x1="220" y1="1035" x2="2330" y2="1035" stroke="#d7d0c3" stroke-width="2"/><line x1="220" y1="1130" x2="2330" y2="1130" stroke="#d7d0c3" stroke-width="2"/><line x1="220" y1="1225" x2="2330" y2="1225" stroke="#d7d0c3" stroke-width="2"/><line x1="220" y1="1320" x2="2330" y2="1320" stroke="#d7d0c3" stroke-width="2"/><line x1="220" y1="1415" x2="2330" y2="1415" stroke="#d7d0c3" stroke-width="2"/><line x1="220" y1="1510" x2="2330" y2="1510" stroke="#d7d0c3" stroke-width="2"/><line x1="220" y1="1605" x2="2330" y2="1605" stroke="#d7d0c3" stroke-width="2"/><line x1="220" y1="1700" x2="2330" y2="1700" stroke="#d7d0c3" stroke-width="2"/><line x1="220" y1="1795" x2="2330" y2="1795" stroke="#d7d0c3" stroke-width="2"/><line x1="220" y1="1890" x2="2330" y2="1890" stroke="#d7d0c3" stroke-width="2"/><line x1="220" y1="1985" x2="2330" y2="1985" stroke="#d7d0c3" stroke-width="2"/><line x1="220" y1="2080" x2="2330" y2="2080" stroke="#d7d0c3" stroke-width="2"/><line x1="220" y1="2175" x2="2330" y2="2175" stroke="#d7d0c3" stroke-width="2"/><line x1="220" y1="2270" x2="2330" y2="2270" stroke="#d7d0c3" stroke-width="2"/><line x1="220" y1="2365" x2="2330" y2="2365" stroke="#d7d0c3" stroke-width="2"/><line x1="220" y1="2460" x2="2330" y2="2460" stroke="#d7d0c3" stroke-width="2"/><line x1="220" y1="2555" x2="2330" y2="2555" stroke="#d7d0c3" stroke-width="2"/><line x1="220" y1="2650" x2="2330" y2="2650" stroke="#d7d0c3" stroke-width="2"/><line x1="220" y1="2745" x2="2330" y2="2745" stroke="#d7d0c3" stroke-width="2"/><line x1="220" y1="2840" x2="2330" y2="2840" stroke="#d7d0c3" stroke-width="2"/><line x1="220" y1="2935" x2="2330" y2="2935" stroke="#d7d0c3" stroke-width="2"/><line x1="220" y1="3030" x2="2330" y2="3030" stroke="#d7d0c3" stroke-width="2"/>
  <line x1="740" y1="470" x2="740" y2="3100" stroke="#d7d0c3" stroke-width="2"/>
  <line x1="1080" y1="470" x2="1080" y2="3100" stroke="#d7d0c3" stroke-width="2"/>
  <line x1="1660" y1="470" x2="1660" y2="3100" stroke="#d7d0c3" stroke-width="2"/>
  <line x1="2010" y1="470" x2="2010" y2="3100" stroke="#d7d0c3" stroke-width="2"/>
</svg>