<svg xmlns="http://www.w3.org/2000/svg" width="2550" height="3300" viewBox="0 0 2550 3300">
  <rect width="2550" height="3300" fill="#f8f5ee"/>
  <text x="180" y="220" font-size="88" font-family="Georgia" fill="#2f3e2f">Field Notes</text>
  <text x="180" y="285" font-size="38" font-family="Arial" fill="#556b5d">Birding Session Notes</text>
  <line x1="180" y1="330" x2="2370" y2="330" stroke="#66785f" stroke-width="4"/>
  <text x="180" y="420" font-size="34" font-family="Arial">Date:</text><line x1="290" y1="425" x2="900" y2="425" stroke="#999" stroke-width="2"/>
  <text x="980" y="420" font-size="34" font-family="Arial">Site:</text><line x1="1060" y1="425" x2="2370" y2="425" stroke="#999" stroke-width="2"/>
  <g stroke="#cfcfcf" stroke-width="1.6">
    <line x1="180" y1="560" x2="2370" y2="560"/>
    <line x1="180" y1="660" x2="2370" y2="660"/>
    <line x1="180" y1="760" x2="2370" y2="760"/>
    <line x1="180" y1="860" x2="2370" y2="860"/>
    <line x1="180" y1="960" x2="2370" y2="960"/>
    <line x1="180" y1="1060" x2="2370" y2="1060"/>
    <line x1="180" y1="1160" x2="2370" y2="1160"/>
    <line x1="180" y1="1260" x2="2370" y2="1260"/>
    <line x1="180" y1="1360" x2="2370" y2="1360"/>
    <line x1="180" y1="1460" x2="2370" y2="1460"/>
    <line x1="180" y1="1560" x2="2370" y2="1560"/>
    <line x1="180" y1="1660" x2="2370" y2="1660"/>
    <line x1="180" y1="1760" x2="2370" y2="1760"/>
    <line x1="180" y1="1860" x2="2370" y2="1860"/>
    <line x1="180" y1="1960" x2="2370" y2="1960"/>
    <line x1="180" y1="2060" x2="2370" y2="2060"/>
    <line x1="180" y1="2160" x2="2370" y2="2160"/>
    <line x1="180" y1="2260" x2="2370" y2="2260"/>
    <line x1="180" y1="2360" x2="2370" y2="2360"/>
    <line x1="180" y1="2460" x2="2370" y2="2460"/>
    <line x1="180" y1="2560" x2="2370" y2="2560"/>
    <line x1="180" y1="2660" x2="2370" y2="2660"/>
    <line x1="180" y1="2760" x2="2370" y2="2760"/>
    <line x1="180" y1="2860" x2="2370" y2="2860"/>
  </g>
</svg>