<svg xmlns="http://www.w3.org/2000/svg" width="2550" height="3300" viewBox="0 0 2550 3300">
  <rect width="2550" height="3300" fill="#f6f2e8"/>
  <rect x="120" y="120" width="2310" height="3060" rx="24" fill="#fffdf8" stroke="#d8ccb6" stroke-width="6"/>
  <text x="220" y="280" font-family="Georgia, serif" font-size="84" fill="#2d4a2d">Warbler Song Codes Cheat Sheet</text>
  <text x="220" y="350" font-family="Arial" font-size="38" fill="#5e635c">Mnemonic calls, habitat cues, and confidence notes</text>
  <line x1="220" y1="420" x2="2330" y2="420" stroke="#c4714a" stroke-width="8"/>
  <g font-family="Arial" font-size="34" fill="#1f2a1d">
    <text x="230" y="510">Species</text><text x="840" y="510">Mnemonic / Song Code</text><text x="1640" y="510">Habitat Cue</text><text x="2110" y="510">Confidence</text>
  </g>
  <line x1="220" y1="560" x2="2330" y2="560" stroke="#d7d0c3" stroke-width="2"/><line x1="220" y1="665" x2="2330" y2="665" stroke="#d7d0c3" stroke-width="2"/><line x1="220" y1="770" x2="2330" y2="770" stroke="#d7d0c3" stroke-width="2"/><line x1="220" y1="875" x2="2330" y2="875" stroke="#d7d0c3" stroke-width="2"/><line x1="220" y1="980" x2="2330" y2="980" stroke="#d7d0c3" stroke-width="2"/><line x1="220" y1="1085" x2="2330" y2="1085" stroke="#d7d0c3" stroke-width="2"/><line x1="220" y1="1190" x2="2330" y2="1190" stroke="#d7d0c3" stroke-width="2"/><line x1="220" y1="1295" x2="2330" y2="1295" stroke="#d7d0c3" stroke-width="2"/><line x1="220" y1="1400" x2="2330" y2="1400" stroke="#d7d0c3" stroke-width="2"/><line x1="220" y1="1505" x2="2330" y2="1505" stroke="#d7d0c3" stroke-width="2"/><line x1="220" y1="1610" x2="2330" y2="1610" stroke="#d7d0c3" stroke-width="2"/><line x1="220" y1="1715" x2="2330" y2="1715" stroke="#d7d0c3" stroke-width="2"/><line x1="220" y1="1820" x2="2330" y2="1820" stroke="#d7d0c3" stroke-width="2"/><line x1="220" y1="1925" x2="2330" y2="1925" stroke="#d7d0c3" stroke-width="2"/><line x1="220" y1="2030" x2="2330" y2="2030" stroke="#d7d0c3" stroke-width="2"/><line x1="220" y1="2135" x2="2330" y2="2135" stroke="#d7d0c3" stroke-width="2"/><line x1="220" y1="2240" x2="2330" y2="2240" stroke="#d7d0c3" stroke-width="2"/><line x1="220" y1="2345" x2="2330" y2="2345" stroke="#d7d0c3" stroke-width="2"/><line x1="220" y1="2450" x2="2330" y2="2450" stroke="#d7d0c3" stroke-width="2"/><line x1="220" y1="2555" x2="2330" y2="2555" stroke="#d7d0c3" stroke-width="2"/><line x1="220" y1="2660" x2="2330" y2="2660" stroke="#d7d0c3" stroke-width="2"/><line x1="220" y1="2765" x2="2330" y2="2765" stroke="#d7d0c3" stroke-width="2"/><line x1="220" y1="2870" x2="2330" y2="2870" stroke="#d7d0c3" stroke-width="2"/><line x1="220" y1="2975" x2="2330" y2="2975" stroke="#d7d0c3" stroke-width="2"/>
  <line x1="790" y1="470" x2="790" y2="3100" stroke="#d7d0c3" stroke-width="2"/>
  <line x1="1590" y1="470" x2="1590" y2="3100" stroke="#d7d0c3" stroke-width="2"/>
  <line x1="2060" y1="470" x2="2060" y2="3100" stroke="#d7d0c3" stroke-width="2"/>
</svg>